<svg width="1660" height="354" viewBox="0 0 1660 354" fill="none" xmlns="http://www.w3.org/2000/svg">
<circle cx="177" cy="177" r="177" fill="#F0C430"/>
<path d="M281 284C281 226.562 234.438 180 177 180C119.562 180 73 226.562 73 284" stroke="white" stroke-width="20"/>
<path d="M227 102C227 129.062 205.062 151 178 151C150.938 151 129 129.062 129 102C129 74.938 150.938 53 178 53C205.062 53 227 74.938 227 102Z" stroke="white" stroke-width="20"/>
<path d="M244.487 164.836C237.337 164.839 230.254 166.198 223.611 168.841C218.216 157.767 208.971 149.042 197.607 144.299C204.638 140.859 210.622 135.6 214.937 129.066C219.252 122.533 221.741 114.963 222.146 107.143C222.551 99.3229 220.857 91.5368 217.239 84.5924C213.622 77.648 208.214 71.7983 201.575 67.6501C194.936 63.5019 187.308 61.2063 179.483 61.0014C171.658 60.7964 163.921 62.6897 157.074 66.4848C150.228 70.2798 144.52 75.8384 140.545 82.584C136.57 89.3295 134.471 97.0163 134.466 104.847H142.737C142.737 97.8002 144.826 90.9117 148.739 85.0525C152.653 79.1933 158.215 74.6266 164.723 71.9299C171.23 69.2332 178.391 68.5276 185.3 69.9024C192.208 71.2772 198.554 74.6705 203.535 79.6533C208.516 84.6362 211.908 90.9847 213.282 97.8961C214.657 104.807 213.951 111.971 211.256 118.482C208.56 124.992 203.995 130.557 198.138 134.472C192.281 138.387 185.396 140.476 178.352 140.476V148.751C186.241 148.759 193.97 150.985 200.656 155.175C207.342 159.365 212.716 165.35 216.167 172.448C207.5 177.441 200.302 184.632 195.301 193.296C190.3 201.96 187.671 211.791 187.681 221.796C187.683 225.126 187.982 228.449 188.575 231.725C186.586 232.224 184.562 232.572 182.52 232.768V168.973H174.249V232.652C171.804 232.414 169.385 231.96 167.021 231.295C168.43 223.131 168.036 214.757 165.868 206.761C163.7 198.765 159.81 191.341 154.47 185.008C149.129 178.676 142.469 173.589 134.956 170.104C127.442 166.619 119.258 164.821 110.976 164.836V173.11C117.904 173.096 124.755 174.568 131.066 177.426C137.378 180.285 143.003 184.464 147.563 189.681C152.124 194.899 155.513 201.034 157.502 207.673C159.492 214.312 160.036 221.3 159.097 228.167C152.234 224.633 146.477 219.277 142.456 212.685C138.435 206.094 136.306 198.522 136.302 190.801H128.031C128.038 200.406 130.791 209.81 135.964 217.902C141.137 225.995 148.515 232.439 157.228 236.475C154.086 246.296 147.908 254.864 139.583 260.944C131.258 267.023 121.217 270.3 110.91 270.3V278.575C122.9 278.558 134.579 274.754 144.281 267.705C153.982 260.656 161.211 250.723 164.936 239.321C167.949 240.162 171.034 240.716 174.15 240.976V274.454H182.421V240.96C185.143 240.732 187.842 240.29 190.494 239.636C194.269 250.961 201.507 260.813 211.183 267.801C220.86 274.788 232.487 278.557 244.42 278.575V270.3C234.21 270.285 224.263 267.056 215.989 261.072C207.715 255.087 201.533 246.65 198.318 236.955C209.568 232.056 218.638 223.21 223.818 212.083C228.998 200.957 229.93 188.319 226.439 176.552C232.134 174.282 238.208 173.114 244.338 173.11L244.487 164.836ZM220.385 190.801C220.377 198.742 218.126 206.519 213.89 213.236C209.655 219.953 203.609 225.335 196.449 228.763C196.112 226.456 195.946 224.128 195.952 221.796C195.965 213.497 198.099 205.338 202.153 198.097C206.206 190.856 212.044 184.772 219.111 180.425C219.973 183.815 220.401 187.302 220.385 190.801Z" fill="#035F73"/>
<path d="M445.588 241.854V234.54C449.192 234.54 452.195 234.081 454.598 233.162C457.001 232.243 458.803 231.007 460.004 229.452C461.276 227.827 461.912 226.06 461.912 224.152C461.912 222.315 461.453 220.725 460.534 219.382C459.686 217.969 458.343 216.873 456.506 216.096C454.739 215.319 452.549 214.93 449.934 214.93C447.249 214.93 444.917 215.354 442.938 216.202C440.959 216.979 439.405 218.11 438.274 219.594C437.214 221.007 436.684 222.633 436.684 224.47H422.586C422.586 220.23 423.646 216.485 425.766 213.234C427.957 209.913 431.101 207.298 435.2 205.39C439.299 203.482 444.21 202.528 449.934 202.528C455.799 202.528 460.711 203.447 464.668 205.284C468.696 207.121 471.77 209.559 473.89 212.598C476.01 215.637 477.07 219.029 477.07 222.774C477.07 225.813 476.257 228.533 474.632 230.936C473.007 233.268 470.781 235.247 467.954 236.872C465.127 238.497 461.806 239.734 457.99 240.582C454.174 241.43 450.04 241.854 445.588 241.854ZM450.146 279.484C444.917 279.484 440.359 278.848 436.472 277.576C432.656 276.304 429.476 274.573 426.932 272.382C424.459 270.121 422.586 267.577 421.314 264.75C420.042 261.853 419.406 258.814 419.406 255.634H434.458C434.599 258.037 435.306 260.086 436.578 261.782C437.85 263.478 439.581 264.785 441.772 265.704C444.033 266.552 446.683 266.976 449.722 266.976C454.315 266.976 457.849 266.093 460.322 264.326C462.795 262.489 464.032 259.839 464.032 256.376C464.032 254.044 463.325 252.03 461.912 250.334C460.569 248.567 458.52 247.225 455.764 246.306C453.008 245.387 449.616 244.928 445.588 244.928V236.872C452.019 236.872 457.743 237.614 462.76 239.098C467.848 240.511 471.841 242.773 474.738 245.882C477.706 248.921 479.19 252.949 479.19 257.966C479.19 262.206 478.095 265.951 475.904 269.202C473.713 272.453 470.427 274.997 466.046 276.834C461.735 278.601 456.435 279.484 450.146 279.484ZM526.335 228.71L509.269 274.82H491.991L526.335 200.09L560.679 274.82H543.401L526.335 228.71ZM552.411 278H500.259V289.66H485.525V264.75H567.145V289.66H552.411V278ZM588.578 240.9C588.578 245.635 589.567 249.839 591.546 253.514C593.525 257.189 596.245 260.086 599.708 262.206C603.171 264.326 607.199 265.386 611.792 265.386C616.385 265.386 620.413 264.326 623.876 262.206C627.339 260.086 630.024 257.189 631.932 253.514C633.911 249.839 634.9 245.635 634.9 240.9C634.9 236.165 633.946 231.961 632.038 228.286C630.13 224.611 627.445 221.714 623.982 219.594C620.519 217.474 616.456 216.414 611.792 216.414C607.199 216.414 603.171 217.474 599.708 219.594C596.245 221.714 593.525 224.611 591.546 228.286C589.567 231.961 588.578 236.165 588.578 240.9ZM572.572 240.9C572.572 235.247 573.561 230.088 575.54 225.424C577.519 220.689 580.275 216.591 583.808 213.128C587.341 209.665 591.475 207.015 596.21 205.178C601.015 203.27 606.209 202.316 611.792 202.316C617.445 202.316 622.639 203.27 627.374 205.178C632.109 207.015 636.243 209.665 639.776 213.128C643.38 216.591 646.136 220.689 648.044 225.424C650.023 230.088 651.012 235.247 651.012 240.9C651.012 246.483 650.023 251.677 648.044 256.482C646.136 261.217 643.415 265.351 639.882 268.884C636.419 272.417 632.285 275.173 627.48 277.152C622.745 279.06 617.516 280.014 611.792 280.014C606.068 280.014 600.803 279.06 595.998 277.152C591.263 275.173 587.129 272.417 583.596 268.884C580.063 265.351 577.342 261.217 575.434 256.482C573.526 251.677 572.572 246.483 572.572 240.9ZM662.73 203.8H677.888V278H662.73V203.8ZM671.952 216.626V203.8H686.686C692.551 203.8 697.533 204.754 701.632 206.662C705.801 208.57 708.981 211.291 711.172 214.824C713.362 218.357 714.458 222.562 714.458 227.438C714.458 232.243 713.362 236.448 711.172 240.052C708.981 243.585 705.801 246.306 701.632 248.214C697.533 250.122 692.551 251.076 686.686 251.076H671.952V238.25H686.686C690.714 238.25 693.894 237.331 696.226 235.494C698.558 233.657 699.724 230.971 699.724 227.438C699.724 223.834 698.558 221.149 696.226 219.382C693.894 217.545 690.714 216.626 686.686 216.626H671.952ZM737.951 240.9C737.951 245.635 738.94 249.839 740.919 253.514C742.898 257.189 745.618 260.086 749.081 262.206C752.544 264.326 756.572 265.386 761.165 265.386C765.758 265.386 769.786 264.326 773.249 262.206C776.712 260.086 779.397 257.189 781.305 253.514C783.284 249.839 784.273 245.635 784.273 240.9C784.273 236.165 783.319 231.961 781.411 228.286C779.503 224.611 776.818 221.714 773.355 219.594C769.892 217.474 765.829 216.414 761.165 216.414C756.572 216.414 752.544 217.474 749.081 219.594C745.618 221.714 742.898 224.611 740.919 228.286C738.94 231.961 737.951 236.165 737.951 240.9ZM721.945 240.9C721.945 235.247 722.934 230.088 724.913 225.424C726.892 220.689 729.648 216.591 733.181 213.128C736.714 209.665 740.848 207.015 745.583 205.178C750.388 203.27 755.582 202.316 761.165 202.316C766.818 202.316 772.012 203.27 776.747 205.178C781.482 207.015 785.616 209.665 789.149 213.128C792.753 216.591 795.509 220.689 797.417 225.424C799.396 230.088 800.385 235.247 800.385 240.9C800.385 246.483 799.396 251.677 797.417 256.482C795.509 261.217 792.788 265.351 789.255 268.884C785.792 272.417 781.658 275.173 776.853 277.152C772.118 279.06 766.889 280.014 761.165 280.014C755.441 280.014 750.176 279.06 745.371 277.152C740.636 275.173 736.502 272.417 732.969 268.884C729.436 265.351 726.715 261.217 724.807 256.482C722.899 251.677 721.945 246.483 721.945 240.9ZM823.445 240.37V233.48H835.423C837.614 233.48 839.522 233.127 841.147 232.42C842.772 231.713 844.009 230.689 844.857 229.346C845.776 228.003 846.235 226.413 846.235 224.576C846.235 221.749 845.246 219.594 843.267 218.11C841.359 216.626 838.744 215.884 835.423 215.884H827.261V265.916H837.013C839.557 265.916 841.854 265.563 843.903 264.856C845.952 264.079 847.542 262.877 848.673 261.252C849.874 259.627 850.475 257.542 850.475 254.998C850.475 253.161 850.122 251.606 849.415 250.334C848.779 248.991 847.825 247.896 846.553 247.048C845.352 246.129 843.938 245.493 842.313 245.14C840.688 244.716 838.921 244.504 837.013 244.504H823.445V236.236H838.391C841.995 236.236 845.422 236.625 848.673 237.402C851.994 238.179 854.962 239.416 857.577 241.112C860.192 242.737 862.241 244.857 863.725 247.472C865.28 250.087 866.057 253.231 866.057 256.906C866.057 261.782 864.891 265.775 862.559 268.884C860.298 271.993 857.082 274.29 852.913 275.774C848.744 277.258 843.903 278 838.391 278H812.103V203.8H836.801C841.748 203.8 846.094 204.507 849.839 205.92C853.584 207.263 856.517 209.312 858.637 212.068C860.757 214.824 861.817 218.322 861.817 222.562C861.817 226.307 860.757 229.523 858.637 232.208C856.517 234.893 853.584 236.943 849.839 238.356C846.094 239.699 841.748 240.37 836.801 240.37H823.445ZM878.974 203.8H894.132V278H878.974V203.8ZM888.196 243.55V230.724H902.93C908.795 230.724 913.777 231.678 917.876 233.586C922.045 235.494 925.225 238.215 927.416 241.748C929.607 245.281 930.702 249.486 930.702 254.362C930.702 259.167 929.607 263.372 927.416 266.976C925.225 270.509 922.045 273.23 917.876 275.138C913.777 277.046 908.795 278 902.93 278H888.196V265.174H902.93C905.615 265.174 907.912 264.785 909.82 264.008C911.799 263.16 913.318 261.923 914.378 260.298C915.438 258.673 915.968 256.694 915.968 254.362C915.968 252.03 915.438 250.051 914.378 248.426C913.318 246.801 911.799 245.599 909.82 244.822C907.912 243.974 905.615 243.55 902.93 243.55H888.196ZM952.181 278V265.174H989.599V278H952.181ZM952.181 216.626V203.8H989.599V216.626H952.181ZM952.181 244.928V232.314H987.479V244.928H952.181ZM942.429 203.8H957.057V278H942.429V203.8ZM1047.87 203.8L1078.82 238.78L1046.28 278H1028.37L1061.12 238.568L1029.96 203.8H1047.87ZM1075.11 203.8H1090.7V278H1075.11V203.8ZM1116.88 203.8H1135.32L1104.16 238.568L1136.91 278H1118.47L1086.99 238.78L1116.88 203.8ZM1154.86 278V265.174H1192.28V278H1154.86ZM1154.86 216.626V203.8H1192.28V216.626H1154.86ZM1154.86 244.928V232.314H1190.16V244.928H1154.86ZM1145.11 203.8H1159.74V278H1145.11V203.8ZM1212.2 245.352V231.678H1266.69V245.352H1212.2ZM1257.04 203.8H1272.2V278H1257.04V203.8ZM1207.22 203.8H1222.38V278H1207.22V203.8ZM1367.99 264.326V203.8H1383.04V264.326H1393.96V291.462H1379.65V278H1288.6V203.8H1303.75V264.326H1328.45V203.8H1343.19V264.326H1367.99ZM1473.17 219.806L1406.28 281.71L1406.81 261.994L1473.7 200.09L1473.17 219.806ZM1420.91 203.8V265.916L1406.28 281.71V203.8H1420.91ZM1473.7 200.09V278H1459.07V216.308L1473.7 200.09ZM1494.8 245.352V231.678H1549.29V245.352H1494.8ZM1539.64 203.8H1554.8V278H1539.64V203.8ZM1489.82 203.8H1504.98V278H1489.82V203.8ZM1630.87 203.8H1646.24V278H1630.87V203.8ZM1570.77 203.8H1585.93V278H1570.77V203.8ZM1579.99 243.55V230.724H1594.72C1600.59 230.724 1605.57 231.678 1609.67 233.586C1613.84 235.494 1617.02 238.215 1619.21 241.748C1621.4 245.281 1622.5 249.486 1622.5 254.362C1622.5 259.167 1621.4 263.372 1619.21 266.976C1617.02 270.509 1613.84 273.23 1609.67 275.138C1605.57 277.046 1600.59 278 1594.72 278H1579.99V265.174H1594.72C1597.41 265.174 1599.71 264.785 1601.61 264.008C1603.59 263.16 1605.11 261.923 1606.17 260.298C1607.23 258.673 1607.76 256.694 1607.76 254.362C1607.76 252.03 1607.23 250.051 1606.17 248.426C1605.11 246.801 1603.59 245.599 1601.61 244.822C1599.71 243.974 1597.41 243.55 1594.72 243.55H1579.99Z" fill="#035F73"/>
<path d="M485.02 150.536V134H424.494V59.8H432.868V126.368H475.268V59.8H483.642V126.368H493.288L492.016 150.536H485.02ZM505.547 134V59.8H513.921V121.386L558.229 59.8H566.179V134H557.911V72.414L513.709 134H505.547ZM619.977 136.756V128.594C608.176 128.594 598.954 125.697 592.311 119.902C585.739 114.107 582.453 106.334 582.453 96.582C582.453 86.83 585.739 79.092 592.311 73.368C598.954 67.5733 608.176 64.676 619.977 64.676V57.362H628.351V64.676C640.152 64.676 649.339 67.5733 655.911 73.368C662.554 79.092 665.875 86.83 665.875 96.582C665.875 106.334 662.554 114.107 655.911 119.902C649.339 125.697 640.152 128.594 628.351 128.594V136.756H619.977ZM619.977 120.962V72.308C610.79 72.308 603.688 74.428 598.671 78.668C593.654 82.8373 591.145 88.844 591.145 96.688C591.145 104.532 593.654 110.539 598.671 114.708C603.688 118.877 610.79 120.962 619.977 120.962ZM628.351 120.962C637.538 120.962 644.64 118.877 649.657 114.708C654.674 110.539 657.183 104.532 657.183 96.688C657.183 88.844 654.674 82.8373 649.657 78.668C644.64 74.428 637.538 72.308 628.351 72.308V120.962ZM682.248 134V59.8H710.02C718.5 59.8 725.249 61.92 730.266 66.16C735.283 70.4 737.792 76.1947 737.792 83.544C737.792 91.2467 735.001 97.218 729.418 101.458C723.906 105.698 716.981 107.818 708.642 107.818H690.622V134H682.248ZM690.622 100.186H708.96C715.108 100.186 720.019 98.702 723.694 95.734C727.439 92.6953 729.312 88.6673 729.312 83.65C729.312 78.4913 727.51 74.534 723.906 71.778C720.373 68.9513 715.532 67.538 709.384 67.538H690.622V100.186ZM814.745 124.036C807.607 131.527 798.527 135.272 787.503 135.272C776.479 135.272 767.433 131.527 760.367 124.036C753.3 116.545 749.767 107.5 749.767 96.9C749.767 86.3707 753.335 77.3607 760.473 69.87C767.61 62.3087 776.691 58.528 787.715 58.528C798.739 58.528 807.784 62.2733 814.851 69.764C821.917 77.2547 825.451 86.3 825.451 96.9C825.451 107.429 821.882 116.475 814.745 124.036ZM766.727 118.63C772.309 124.566 779.305 127.534 787.715 127.534C796.124 127.534 803.049 124.601 808.491 118.736C814.003 112.8 816.759 105.521 816.759 96.9C816.759 88.3493 813.967 81.106 808.385 75.17C802.873 69.234 795.912 66.266 787.503 66.266C779.093 66.266 772.133 69.234 766.621 75.17C761.179 81.0353 758.459 88.2787 758.459 96.9C758.459 105.451 761.215 112.694 766.727 118.63ZM843.111 134V59.8H874.699C883.391 59.8 889.857 61.9907 894.097 66.372C897.277 69.6933 898.867 73.7213 898.867 78.456C898.867 86.512 894.945 92.236 887.101 95.628C897.701 98.808 903.001 104.85 903.001 113.754C903.001 120.043 900.563 124.99 895.687 128.594C890.811 132.198 884.275 134 876.077 134H843.111ZM851.379 126.474H876.289C881.943 126.474 886.395 125.308 889.645 122.976C892.896 120.573 894.521 117.252 894.521 113.012C894.521 108.913 892.825 105.769 889.433 103.578C886.112 101.387 881.236 100.292 874.805 100.292H851.379V126.474ZM851.379 92.872H873.321C878.48 92.872 882.614 91.706 885.723 89.374C888.833 87.042 890.387 83.7207 890.387 79.41C890.387 75.6647 888.939 72.732 886.041 70.612C883.215 68.4213 879.187 67.326 873.957 67.326H851.379V92.872ZM981.301 124.036C974.164 131.527 965.083 135.272 954.059 135.272C943.035 135.272 933.99 131.527 926.923 124.036C919.857 116.545 916.323 107.5 916.323 96.9C916.323 86.3707 919.892 77.3607 927.029 69.87C934.167 62.3087 943.247 58.528 954.271 58.528C965.295 58.528 974.341 62.2733 981.407 69.764C988.474 77.2547 992.007 86.3 992.007 96.9C992.007 107.429 988.439 116.475 981.301 124.036ZM933.283 118.63C938.866 124.566 945.862 127.534 954.271 127.534C962.681 127.534 969.606 124.601 975.047 118.736C980.559 112.8 983.315 105.521 983.315 96.9C983.315 88.3493 980.524 81.106 974.941 75.17C969.429 69.234 962.469 66.266 954.059 66.266C945.65 66.266 938.689 69.234 933.177 75.17C927.736 81.0353 925.015 88.2787 925.015 96.9C925.015 105.451 927.771 112.694 933.283 118.63ZM1009.67 134V59.8H1018.04V121.386L1062.35 59.8H1070.3V134H1062.03V72.414L1017.83 134H1009.67ZM1050.58 50.048C1047.83 52.4507 1044.47 53.652 1040.51 53.652C1036.56 53.652 1033.2 52.4507 1030.44 50.048C1027.69 47.5747 1025.99 44.43 1025.36 40.614L1031.08 39.448C1032.49 44.3947 1035.64 46.868 1040.51 46.868C1045.39 46.868 1048.53 44.3947 1049.95 39.448L1055.67 40.614C1055.04 44.43 1053.34 47.5747 1050.58 50.048ZM1183.54 150.536V134H1123.02V59.8H1131.39V126.368H1173.79V59.8H1182.17V126.368H1191.81L1190.54 150.536H1183.54ZM1204.07 134V59.8H1257.71V67.432H1212.44V92.766H1252.94V100.398H1212.44V126.368H1258.24V134H1204.07ZM1275.08 134V59.8H1283.46V92.766H1326.28V59.8H1334.65V134H1326.28V100.61H1283.46V134H1275.08ZM1375.23 134V67.432H1350.32V59.8H1408.62V67.432H1383.71V134H1375.23ZM1424.35 134V59.8H1452.12C1460.6 59.8 1467.35 61.92 1472.37 66.16C1477.39 70.4 1479.9 76.1947 1479.9 83.544C1479.9 91.2467 1477.1 97.218 1471.52 101.458C1466.01 105.698 1459.08 107.818 1450.75 107.818H1432.73V134H1424.35ZM1432.73 100.186H1451.06C1457.21 100.186 1462.12 98.702 1465.8 95.734C1469.54 92.6953 1471.42 88.6673 1471.42 83.65C1471.42 78.4913 1469.61 74.534 1466.01 71.778C1462.48 68.9513 1457.64 67.538 1451.49 67.538H1432.73V100.186Z" fill="#035F73"/>
</svg>
